<svg width="44.000000" height="44.000000" viewBox="0 0 44 44" fill="none" xmlns="http://www.w3.org/2000/svg" xmlns:xlink="http://www.w3.org/1999/xlink">
	
	<defs/>
	<g opacity="0.800000">
		<rect id="Brand/logo-symbol" width="44.000000" height="44.000000" fill="#FFFFFF" fill-opacity="0"/>
		<path id="2" d="M14.46 1.91L37.18 1.91C40.94 1.91 44 5.28 44 9.44L44 34.55C44 38.71 40.94 42.08 37.18 42.08L14.46 42.08C10.7 42.08 7.65 38.71 7.65 34.55L7.65 9.44C7.65 5.28 10.7 1.91 14.46 1.91Z" fill="#0D6EFD" fill-opacity="0.200000" fill-rule="evenodd"/>
		<path id="1" d="M8.13 1.91L32.04 1.91C36 1.91 39.21 5.28 39.21 9.44L39.21 34.55C39.21 38.71 36 42.08 32.04 42.08L8.13 42.08C4.16 42.08 0.95 38.71 0.95 34.55L0.95 9.44C0.95 5.28 4.16 1.91 8.13 1.91Z" fill="#0D6EFD" fill-opacity="1.000000" fill-rule="evenodd"/>
		<g opacity="0.700000">
			<g opacity="0.300000" style="mix-blend-mode:normal">
				<path id="Path" d="M15.29 18.35L14.3 18.35C14.25 18.35 14.18 18.42 14.18 18.47L13.45 30.14L26.95 30.14L26.22 18.47C26.22 18.42 26.14 18.35 26.09 18.35L25.11 18.35L25.11 20.32C25.11 20.86 24.67 21.3 24.13 21.3C23.59 21.3 23.15 20.86 23.15 20.32L23.15 18.35L17.25 18.35L17.25 20.32C17.25 20.86 16.81 21.3 16.27 21.3C15.73 21.3 15.29 20.86 15.29 20.32L15.29 18.35Z" fill="#FFFFFF" fill-opacity="1.000000" fill-rule="evenodd"/>
			</g>
			<path id="Combined Shape" d="" fill="#FFFFFF" fill-opacity="1.000000" fill-rule="nonzero"/>
		</g>
	</g>
</svg>
