<svg width="20.006836" height="20.000000" viewBox="0 0 20.0068 20" fill="none" xmlns="http://www.w3.org/2000/svg" xmlns:xlink="http://www.w3.org/1999/xlink">
	<desc>
			Created with Pixso.
	</desc>
	<defs/>
	<path id="Vector" d="M14.54 11C15.29 11 15.96 10.59 16.29 9.96L19.87 3.47C20.25 2.82 19.76 2 19 2L4.2 2L3.26 0L0 0L0 2L2 2L5.59 9.59L4.25 12.03C3.51 13.37 4.48 15 6 15L18 15L18 13L6 13L7.09 11L14.54 11ZM5.16 4L17.3 4L14.54 9L7.53 9L5.16 4ZM6 16C4.9 16 4 16.89 4 18C4 19.1 4.9 20 6 20C7.09 20 8 19.1 8 18C8 16.89 7.09 16 6 16ZM16 16C14.9 16 14 16.89 14 18C14 19.1 14.9 20 16 20C17.09 20 18 19.1 18 18C18 16.89 17.09 16 16 16Z" fill="#1C1C1C" fill-opacity="1.000000" fill-rule="nonzero"/>
</svg>
