<svg width="20.000000" height="20.000000" viewBox="0 0 20 20" fill="none" xmlns="http://www.w3.org/2000/svg" xmlns:xlink="http://www.w3.org/1999/xlink">
	<desc>
			Created with Pixso.
	</desc>
	<defs/>
	<path id="Vector" d="M2 0L18 0C19 0 20 0.9 20 2L20 5.01C20 5.72 19.57 6.34 19 6.7L19 18C19 19.1 17.9 20 17 20L3 20C2.09 20 1 19.1 1 18L1 6.7C0.42 6.34 0 5.72 0 5.01L0 2C0 0.9 1 0 2 0ZM2 5L18 5L18 2L2 2L2 5ZM3 18L17 18L17 7L3 7L3 18ZM7 10L13 10L13 12L7 12L7 10Z" fill="#1C1C1C" fill-opacity="1.000000" fill-rule="evenodd"/>
</svg>
