<svg width="20.000000" height="20.000000" viewBox="0 0 20 20" fill="none" xmlns="http://www.w3.org/2000/svg" xmlns:xlink="http://www.w3.org/1999/xlink">
	<desc>
			Created with Pixso.
	</desc>
	<defs/>
	<mask id="mask_235_4881" fill="white">
		<path id="Vector" d="M18 0L2 0C0.900024 0 0.0100098 0.899902 0.0100098 2L0 20L4 16L18 16C19.1 16 20 15.1001 20 14L20 2C20 0.899902 19.1 0 18 0ZM5 6L15 6C15.55 6 16 5.55005 16 5C16 4.44995 15.55 4 15 4L5 4C4.44995 4 4 4.44995 4 5C4 5.55005 4.44995 6 5 6ZM15 7L5 7C4.44995 7 4 7.44995 4 8C4 8.55005 4.44995 9 5 9L15 9C15.55 9 16 8.55005 16 8C16 7.44995 15.55 7 15 7ZM11 12L5 12C4.44995 12 4 11.55 4 11C4 10.45 4.44995 10 5 10L11 10C11.55 10 12 10.45 12 11C12 11.55 11.55 12 11 12Z" clip-rule="evenodd" fill="" fill-opacity="1.000000" fill-rule="evenodd"/>
	</mask>
	<path id="Vector" d="M18 0L2 0C0.900024 0 0.0100098 0.899902 0.0100098 2L0 20L4 16L18 16C19.1 16 20 15.1001 20 14L20 2C20 0.899902 19.1 0 18 0ZM5 6L15 6C15.55 6 16 5.55005 16 5C16 4.44995 15.55 4 15 4L5 4C4.44995 4 4 4.44995 4 5C4 5.55005 4.44995 6 5 6ZM15 7L5 7C4.44995 7 4 7.44995 4 8C4 8.55005 4.44995 9 5 9L15 9C15.55 9 16 8.55005 16 8C16 7.44995 15.55 7 15 7ZM11 12L5 12C4.44995 12 4 11.55 4 11C4 10.45 4.44995 10 5 10L11 10C11.55 10 12 10.45 12 11C12 11.55 11.55 12 11 12Z" clip-rule="evenodd" fill="#8B96A5" fill-opacity="1.000000" fill-rule="evenodd" mask="url(#mask_235_4881)"/>
	<path id="Vector" d="" fill="#979797" fill-opacity="0.000000" fill-rule="nonzero"/>
</svg>
