<svg width="21.007446" height="20.999512" viewBox="0 0 21.0074 20.9995" fill="none" xmlns="http://www.w3.org/2000/svg" xmlns:xlink="http://www.w3.org/1999/xlink">
	<desc>
			Created with Pixso.
	</desc>
	<defs/>
	<mask id="mask_235_4899" fill="white">
		<path id="Vector" d="M0 1.05005C0 1.62744 0.472534 2.09985 1.04993 2.09985L2.09998 2.09985L5.87988 10.0693L4.4624 12.6313C3.69592 14.0383 4.70386 15.7498 6.29993 15.7498L17.8497 15.7498C18.4271 15.7498 18.8997 15.2773 18.8997 14.6997C18.8997 14.1223 18.4271 13.6497 17.8497 13.6497L6.29993 13.6497L7.45483 11.5498L15.2772 11.5498C16.0647 11.5498 16.7577 11.1194 17.1147 10.4683L20.8737 3.65405C21.2621 2.96094 20.7582 2.09985 19.9602 2.09985L4.42041 2.09985L3.71692 0.598389C3.54895 0.230957 3.1709 0 2.77197 0L1.04993 0C0.472534 0 0 0.472412 0 1.05005ZM6.29993 16.7998C5.1449 16.7998 4.21045 17.7446 4.21045 18.8997C4.21045 20.0547 5.1449 20.9995 6.29993 20.9995C7.45483 20.9995 8.3999 20.0547 8.3999 18.8997C8.3999 17.7446 7.45483 16.7998 6.29993 16.7998ZM14.7102 18.8997C14.7102 17.7446 15.6448 16.7998 16.7997 16.7998C17.9547 16.7998 18.8997 17.7446 18.8997 18.8997C18.8997 20.0547 17.9547 20.9995 16.7997 20.9995C15.6448 20.9995 14.7102 20.0547 14.7102 18.8997Z" clip-rule="evenodd" fill="" fill-opacity="1.000000" fill-rule="evenodd"/>
	</mask>
	<path id="Vector" d="M0 1.05005C0 1.62744 0.472534 2.09985 1.04993 2.09985L2.09998 2.09985L5.87988 10.0693L4.4624 12.6313C3.69592 14.0383 4.70386 15.7498 6.29993 15.7498L17.8497 15.7498C18.4271 15.7498 18.8997 15.2773 18.8997 14.6997C18.8997 14.1223 18.4271 13.6497 17.8497 13.6497L6.29993 13.6497L7.45483 11.5498L15.2772 11.5498C16.0647 11.5498 16.7577 11.1194 17.1147 10.4683L20.8737 3.65405C21.2621 2.96094 20.7582 2.09985 19.9602 2.09985L4.42041 2.09985L3.71692 0.598389C3.54895 0.230957 3.1709 0 2.77197 0L1.04993 0C0.472534 0 0 0.472412 0 1.05005ZM6.29993 16.7998C5.1449 16.7998 4.21045 17.7446 4.21045 18.8997C4.21045 20.0547 5.1449 20.9995 6.29993 20.9995C7.45483 20.9995 8.3999 20.0547 8.3999 18.8997C8.3999 17.7446 7.45483 16.7998 6.29993 16.7998ZM14.7102 18.8997C14.7102 17.7446 15.6448 16.7998 16.7997 16.7998C17.9547 16.7998 18.8997 17.7446 18.8997 18.8997C18.8997 20.0547 17.9547 20.9995 16.7997 20.9995C15.6448 20.9995 14.7102 20.0547 14.7102 18.8997Z" clip-rule="evenodd" fill="#8B96A5" fill-opacity="1.000000" fill-rule="evenodd" mask="url(#mask_235_4899)"/>
	<path id="Vector" d="" fill="#979797" fill-opacity="0.000000" fill-rule="nonzero"/>
</svg>
