<svg width="20.000000" height="19.000000" viewBox="0 0 20 19" fill="none" xmlns="http://www.w3.org/2000/svg" xmlns:xlink="http://www.w3.org/1999/xlink">
	<desc>
			Created with Pixso.
	</desc>
	<defs/>
	<mask id="mask_235_4872" fill="white">
		<path id="Vector" d="M15 5C15 7.76245 12.7625 10 10 10C7.23755 10 5 7.76245 5 5C5 2.23755 7.23755 0 10 0C12.7625 0 15 2.23755 15 5ZM0 16.5C0 13.175 6.66248 11.5 10 11.5C13.3375 11.5 20 13.175 20 16.5L20 17.75C20 18.4375 19.4375 19 18.75 19L1.25 19C0.5625 19 0 18.4375 0 17.75L0 16.5Z" clip-rule="evenodd" fill="" fill-opacity="1.000000" fill-rule="evenodd"/>
	</mask>
	<path id="Vector" d="M15 5C15 7.76245 12.7625 10 10 10C7.23755 10 5 7.76245 5 5C5 2.23755 7.23755 0 10 0C12.7625 0 15 2.23755 15 5ZM0 16.5C0 13.175 6.66248 11.5 10 11.5C13.3375 11.5 20 13.175 20 16.5L20 17.75C20 18.4375 19.4375 19 18.75 19L1.25 19C0.5625 19 0 18.4375 0 17.75L0 16.5Z" clip-rule="evenodd" fill="#8B96A5" fill-opacity="1.000000" fill-rule="evenodd" mask="url(#mask_235_4872)"/>
	<path id="Vector" d="" fill="#979797" fill-opacity="0.000000" fill-rule="nonzero"/>
</svg>
