<svg width="16.032227" height="16.032471" viewBox="0 0 16.0322 16.0325" fill="none" xmlns="http://www.w3.org/2000/svg" xmlns:xlink="http://www.w3.org/1999/xlink">
	<desc>
			Created with Pixso.
	</desc>
	<defs/>
	<path id="Vector" d="M11.45 10.08L10.73 10.08L10.47 9.83C11.37 8.79 11.91 7.43 11.91 5.95C11.91 2.66 9.24 0 5.95 0C2.66 0 0 2.66 0 5.95C0 9.24 2.66 11.91 5.95 11.91C7.43 11.91 8.79 11.37 9.83 10.47L10.08 10.73L10.08 11.45L14.66 16.03L16.03 14.66L11.45 10.08ZM5.95 10.08C3.67 10.08 1.83 8.24 1.83 5.95C1.83 3.67 3.67 1.83 5.95 1.83C8.24 1.83 10.08 3.67 10.08 5.95C10.08 8.24 8.24 10.08 5.95 10.08Z" fill="#8B96A5" fill-opacity="1.000000" fill-rule="nonzero"/>
</svg>
